<?xml version="1.0" encoding="UTF-8" standalone="no"?>
<!DOCTYPE svg PUBLIC "-//W3C//DTD SVG 20010904//EN"
              "http://www.w3.org/TR/2001/REC-SVG-20010904/DTD/svg10.dtd">

<svg xmlns="http://www.w3.org/2000/svg"
     width="136.864mm" height="148.336mm"
     viewBox="-10 0 3253 3504">
  <path class="logo"
        fill="none" stroke="black" stroke-width="10"
        d="M 1534.00,0.14
           C 1534.00,0.14 1602.00,0.14 1602.00,0.14
             1602.00,0.14 1693.00,0.14 1693.00,0.14
             1693.00,0.14 1708.00,1.00 1708.00,1.00
             1708.00,1.00 1725.00,1.00 1725.00,1.00
             1725.00,1.00 1737.00,1.96 1737.00,1.96
             1737.00,1.96 1751.00,1.96 1751.00,1.96
             1751.00,1.96 1773.00,3.00 1773.00,3.00
             1773.00,3.00 1788.00,4.00 1788.00,4.00
             1788.00,4.00 1812.00,5.00 1812.00,5.00
             1812.00,5.00 1838.00,6.91 1838.00,6.91
             1838.00,6.91 1891.00,10.83 1891.00,10.83
             1891.00,10.83 1932.00,14.17 1932.00,14.17
             1988.80,19.67 2045.51,26.41 2102.00,34.73
             2296.75,63.42 2477.51,105.73 2665.00,165.66
             2729.84,186.38 2794.71,208.50 2858.00,233.60
             2911.98,255.01 2965.86,276.39 3019.00,299.86
             3019.00,299.86 3106.00,339.31 3106.00,339.31
             3106.00,339.31 3145.00,357.86 3145.00,357.86
             3145.00,357.86 3169.00,369.75 3169.00,369.75
             3169.00,369.75 3212.00,391.25 3212.00,391.25
             3215.79,393.14 3230.20,399.60 3231.98,402.39
             3233.22,404.34 3233.00,407.73 3233.00,410.00
             3233.00,410.00 3233.00,1284.00 3233.00,1284.00
             3233.00,1284.00 3233.00,1508.00 3233.00,1508.00
             3233.00,1508.00 3233.00,1620.00 3233.00,1620.00
             3233.00,1620.00 3232.00,1635.00 3232.00,1635.00
             3232.00,1635.00 3232.00,1644.00 3232.00,1644.00
             3232.00,1644.00 3231.00,1657.00 3231.00,1657.00
             3231.00,1657.00 3231.00,1663.00 3231.00,1663.00
             3231.00,1663.00 3229.09,1689.00 3229.09,1689.00
             3229.09,1689.00 3222.16,1769.00 3222.16,1769.00
             3213.60,1849.02 3199.92,1928.83 3180.63,2007.00
             3107.71,2302.40 2962.12,2561.59 2754.91,2784.00
             2619.50,2929.34 2462.91,3055.18 2296.00,3162.69
             2189.61,3231.22 2080.15,3292.67 1967.00,3349.25
             1909.35,3378.07 1851.13,3405.78 1792.00,3431.42
             1792.00,3431.42 1664.00,3485.60 1664.00,3485.60
             1664.00,3485.60 1631.00,3498.80 1631.00,3498.80
             1626.79,3500.49 1619.36,3504.21 1615.00,3503.58
             1615.00,3503.58 1598.00,3497.20 1598.00,3497.20
             1598.00,3497.20 1562.00,3482.60 1562.00,3482.60
             1562.00,3482.60 1440.00,3430.86 1440.00,3430.86
             1300.58,3369.23 1163.79,3300.67 1033.00,3222.20
             906.24,3146.15 784.00,3062.04 671.00,2966.58
             633.40,2934.81 596.56,2901.97 561.00,2867.96
             561.00,2867.96 503.00,2810.00 503.00,2810.00
             503.00,2810.00 476.91,2782.00 476.91,2782.00
             441.59,2744.07 407.86,2704.73 375.79,2664.00
             219.07,2464.98 108.38,2241.66 49.88,1995.00
             33.45,1925.69 19.74,1849.81 12.16,1779.00
             12.16,1779.00 6.83,1723.00 6.83,1723.00
             6.83,1723.00 3.91,1683.00 3.91,1683.00
             3.91,1683.00 3.00,1676.00 3.00,1676.00
             3.00,1676.00 3.00,1666.00 3.00,1666.00
             3.00,1666.00 2.00,1656.00 2.00,1656.00
             2.00,1656.00 1.00,1624.00 1.00,1624.00
             1.00,1624.00 0.00,1607.00 0.00,1607.00
             0.00,1607.00 0.00,1277.00 0.00,1277.00
             0.00,1277.00 0.00,410.00 0.00,410.00
             0.00,407.73 -0.22,404.34 1.02,402.39
             2.77,399.64 15.42,394.04 19.00,392.25
             19.00,392.25 79.00,362.69 79.00,362.69
             79.00,362.69 101.00,351.78 101.00,351.78
             101.00,351.78 162.00,323.31 162.00,323.31
             220.93,296.25 280.77,271.02 341.00,247.00
             597.69,144.64 887.87,66.36 1162.00,30.28
             1225.82,21.88 1289.84,14.32 1354.00,9.91
             1354.00,9.91 1388.00,7.09 1388.00,7.09
             1388.00,7.09 1412.00,5.91 1412.00,5.91
             1412.00,5.91 1419.00,5.00 1419.00,5.00
             1419.00,5.00 1429.00,5.00 1429.00,5.00
             1429.00,5.00 1439.00,4.00 1439.00,4.00
             1439.00,4.00 1492.00,2.00 1492.00,2.00
             1492.00,2.00 1509.00,1.00 1509.00,1.00
             1509.00,1.00 1534.00,0.14 1534.00,0.14 Z
           M 2965.00,1290.00
           C 2965.00,1290.00 2965.00,563.00 2965.00,563.00
             2965.00,560.74 2965.22,557.32 2963.98,555.39
             2962.41,552.96 2951.19,548.38 2948.00,547.00
             2948.00,547.00 2897.00,524.15 2897.00,524.15
             2823.09,492.40 2748.81,462.28 2673.00,435.31
             2464.28,361.03 2243.76,305.64 2024.00,276.72
             1964.46,268.88 1904.86,262.02 1845.00,257.91
             1845.00,257.91 1825.00,256.09 1825.00,256.09
             1825.00,256.09 1801.00,254.91 1801.00,254.91
             1801.00,254.91 1791.00,254.00 1791.00,254.00
             1791.00,254.00 1774.00,253.00 1774.00,253.00
             1774.00,253.00 1746.00,252.00 1746.00,252.00
             1746.00,252.00 1731.00,250.96 1731.00,250.96
             1731.00,250.96 1716.00,250.96 1716.00,250.96
             1716.00,250.96 1705.00,250.00 1705.00,250.00
             1705.00,250.00 1684.00,250.00 1684.00,250.00
             1684.00,250.00 1669.00,249.00 1669.00,249.00
             1669.00,249.00 1554.00,249.00 1554.00,249.00
             1554.00,249.00 1539.00,250.00 1539.00,250.00
             1539.00,250.00 1518.00,250.00 1518.00,250.00
             1518.00,250.00 1502.00,251.00 1502.00,251.00
             1502.00,251.00 1470.00,252.00 1470.00,252.00
             1470.00,252.00 1454.00,253.00 1454.00,253.00
             1454.00,253.00 1431.00,254.00 1431.00,254.00
             1431.00,254.00 1421.00,254.91 1421.00,254.91
             1421.00,254.91 1391.00,256.91 1391.00,256.91
             1391.00,256.91 1280.00,266.84 1280.00,266.84
             1182.82,277.23 1085.74,292.19 990.00,312.00
             893.31,332.01 797.55,356.24 703.00,384.72
             703.00,384.72 576.00,426.00 576.00,426.00
             576.00,426.00 523.00,444.95 523.00,444.95
             458.19,468.65 394.40,494.63 331.00,521.85
             331.00,521.85 275.00,546.78 275.00,546.78
             258.65,554.45 258.02,552.66 258.00,563.00
             258.00,563.00 258.00,1304.00 258.00,1304.00
             258.00,1304.00 258.00,1493.00 258.00,1493.00
             258.00,1493.00 258.00,1588.00 258.00,1588.00
             258.00,1588.00 259.00,1603.00 259.00,1603.00
             259.00,1603.00 259.00,1615.00 259.00,1615.00
             259.00,1615.00 259.96,1625.00 259.96,1625.00
             259.96,1625.00 259.96,1635.00 259.96,1635.00
             259.96,1635.00 261.00,1652.00 261.00,1652.00
             261.00,1652.00 262.91,1676.00 262.91,1676.00
             262.91,1676.00 268.84,1739.00 268.84,1739.00
             275.63,1802.55 287.14,1865.82 301.88,1928.00
             359.71,2171.82 480.23,2392.44 646.84,2579.00
             719.84,2660.74 799.44,2734.55 885.00,2803.00
             885.00,2803.00 957.00,2858.00 957.00,2858.00
             964.22,2863.15 982.09,2877.31 989.00,2880.00
             989.00,2880.00 989.00,2858.00 989.00,2858.00
             989.00,2855.93 988.89,2852.92 989.60,2851.00
             991.09,2847.00 1001.34,2839.02 1005.00,2835.87
             1005.00,2835.87 1050.00,2796.87 1050.00,2796.87
             1050.00,2796.87 1222.00,2647.73 1222.00,2647.73
             1222.00,2647.73 1362.00,2526.28 1362.00,2526.28
             1362.00,2526.28 1648.00,2278.28 1648.00,2278.28
             1701.26,2232.03 1736.44,2202.72 1783.27,2148.00
             1802.59,2125.42 1826.43,2095.31 1838.13,2068.00
             1843.32,2055.87 1849.34,2032.29 1852.21,2019.00
             1855.12,2005.52 1858.98,1982.49 1859.00,1969.00
             1859.00,1969.00 1859.00,1938.00 1859.00,1938.00
             1858.82,1923.28 1853.35,1896.11 1848.67,1882.00
             1838.96,1852.78 1823.11,1824.73 1800.99,1803.04
             1729.33,1732.80 1608.97,1722.67 1531.00,1788.44
             1492.10,1821.26 1470.88,1867.61 1462.59,1917.00
             1460.98,1926.55 1459.01,1941.49 1459.00,1951.00
             1459.00,1951.00 1459.00,1988.00 1459.00,1988.00
             1459.00,1988.00 1459.91,1998.00 1459.91,1998.00
             1461.65,2022.84 1465.61,2047.81 1471.63,2072.00
             1471.63,2072.00 1485.00,2120.00 1485.00,2120.00
             1485.00,2120.00 978.00,2120.00 978.00,2120.00
             978.00,2120.00 978.00,1567.00 978.00,1567.00
             978.00,1567.00 978.56,1560.00 978.56,1560.00
             978.56,1560.00 998.13,1533.00 998.13,1533.00
             998.13,1533.00 1058.35,1454.00 1058.35,1454.00
             1058.35,1454.00 1203.88,1263.00 1203.88,1263.00
             1203.88,1263.00 1252.65,1199.00 1252.65,1199.00
             1252.65,1199.00 1285.00,1156.00 1285.00,1156.00
             1285.00,1156.00 1182.00,1156.00 1182.00,1156.00
             1180.02,1156.00 1176.90,1155.88 1175.09,1156.60
             1171.49,1158.03 1164.26,1168.50 1161.63,1172.00
             1161.63,1172.00 1125.87,1219.00 1125.87,1219.00
             1125.87,1219.00 1026.65,1349.00 1026.65,1349.00
             1026.65,1349.00 978.00,1412.00 978.00,1412.00
             978.00,1412.00 978.00,1384.00 978.00,1384.00
             978.00,1384.00 977.00,1362.00 977.00,1362.00
             977.00,1362.00 975.16,1341.00 975.16,1341.00
             971.63,1307.95 964.37,1279.62 943.34,1253.00
             927.17,1232.55 905.49,1217.09 883.00,1204.28
             883.00,1204.28 867.00,1195.58 867.00,1195.58
             865.00,1194.44 861.23,1192.51 860.02,1190.61
             858.78,1188.65 859.00,1185.28 859.00,1183.00
             859.00,1183.00 859.00,477.00 859.00,477.00
             859.00,477.00 930.00,531.12 930.00,531.12
             930.00,531.12 1104.00,664.63 1104.00,664.63
             1104.00,664.63 1165.00,711.42 1165.00,711.42
             1168.91,714.47 1184.64,727.02 1188.00,728.27
             1190.35,729.14 1193.49,729.00 1196.00,729.00
             1196.00,729.00 1249.00,729.00 1249.00,729.00
             1249.00,729.00 1265.00,730.00 1265.00,730.00
             1265.00,730.00 1297.00,730.00 1297.00,730.00
             1297.00,730.00 1314.00,731.00 1314.00,731.00
             1314.00,731.00 1355.00,732.00 1355.00,732.00
             1355.00,732.00 1369.00,733.00 1369.00,733.00
             1369.00,733.00 1395.00,734.00 1395.00,734.00
             1395.00,734.00 1412.00,735.00 1412.00,735.00
             1412.00,735.00 1424.00,735.96 1424.00,735.96
             1424.00,735.96 1481.00,739.91 1481.00,739.91
             1531.11,743.41 1581.15,749.16 1631.00,755.72
             1967.07,799.95 2297.60,910.49 2547.00,1149.04
             2547.00,1149.04 2588.09,1191.00 2588.09,1191.00
             2588.09,1191.00 2628.73,1236.00 2628.73,1236.00
             2728.20,1352.65 2804.17,1487.97 2858.58,1631.00
             2878.08,1682.26 2896.17,1736.95 2910.12,1790.00
             2910.12,1790.00 2925.13,1849.00 2925.13,1849.00
             2925.13,1849.00 2932.00,1876.00 2932.00,1876.00
             2937.52,1855.16 2946.24,1798.12 2949.28,1775.00
             2949.28,1775.00 2957.17,1706.00 2957.17,1706.00
             2957.17,1706.00 2958.99,1687.00 2958.99,1687.00
             2959.23,1676.03 2952.27,1659.82 2948.67,1649.00
             2948.67,1649.00 2918.20,1568.00 2918.20,1568.00
             2874.58,1458.97 2817.35,1354.90 2748.15,1260.00
             2711.69,1209.99 2671.49,1162.99 2628.00,1119.00
             2628.00,1119.00 2593.00,1084.17 2593.00,1084.17
             2593.00,1084.17 2546.00,1042.27 2546.00,1042.27
             2494.57,998.41 2439.43,959.01 2382.00,923.42
             2242.31,836.87 2087.54,776.79 1929.00,735.12
             1805.13,702.56 1678.34,681.56 1551.00,668.83
             1551.00,668.83 1458.00,660.91 1458.00,660.91
             1458.00,660.91 1413.00,658.00 1413.00,658.00
             1413.00,658.00 1403.00,657.00 1403.00,657.00
             1403.00,657.00 1391.00,657.00 1391.00,657.00
             1391.00,657.00 1379.00,656.00 1379.00,656.00
             1379.00,656.00 1349.00,655.00 1349.00,655.00
             1349.00,655.00 1333.00,654.00 1333.00,654.00
             1333.00,654.00 1319.00,654.00 1319.00,654.00
             1319.00,654.00 1303.00,653.00 1303.00,653.00
             1303.00,653.00 1277.00,653.00 1277.00,653.00
             1277.00,653.00 1260.00,652.00 1260.00,652.00
             1260.00,652.00 1187.00,652.00 1187.00,652.00
             1187.00,652.00 1187.00,518.00 1187.00,518.00
             1187.00,518.00 1376.00,518.00 1376.00,518.00
             1376.00,518.00 1391.00,519.00 1391.00,519.00
             1391.00,519.00 1398.00,519.00 1398.00,519.00
             1398.00,519.00 1408.00,519.96 1408.00,519.96
             1408.00,519.96 1417.00,519.96 1417.00,519.96
             1417.00,519.96 1435.00,521.00 1435.00,521.00
             1435.00,521.00 1445.00,522.00 1445.00,522.00
             1445.00,522.00 1454.00,522.00 1454.00,522.00
             1454.00,522.00 1476.00,523.91 1476.00,523.91
             1476.00,523.91 1551.00,529.83 1551.00,529.83
             1626.67,537.16 1701.94,545.99 1777.00,558.59
             1981.12,592.83 2180.44,647.61 2368.00,736.22
             2479.76,789.02 2587.42,854.53 2682.00,934.42
             2760.17,1000.46 2828.83,1073.64 2886.98,1158.00
             2905.66,1185.11 2923.16,1213.22 2939.14,1242.00
             2939.14,1242.00 2954.74,1271.00 2954.74,1271.00
             2957.60,1276.54 2961.35,1285.41 2965.00,1290.00 Z" />
</svg>
